<svg xmlns="http://www.w3.org/2000/svg" width="30" height="30" fill="none" viewBox="0 0 24 24">
  <path fill="#15ECE2" d="M12 22a.931.931 0 0 1-.6-.2 1.214 1.214 0 0 1-.375-.525 13.92 13.92 0 0 0-1.2-2.625c-.467-.817-1.125-1.775-1.975-2.875-.85-1.1-1.542-2.15-2.075-3.15C5.258 11.625 5 10.417 5 9c0-1.95.675-3.6 2.025-4.95C8.392 2.683 10.05 2 12 2c1.95 0 3.6.683 4.95 2.05C18.317 5.4 19 7.05 19 9c0 1.517-.292 2.783-.875 3.8a26.28 26.28 0 0 1-1.975 2.975c-.9 1.2-1.583 2.2-2.05 3a14.12 14.12 0 0 0-1.125 2.5 1.13 1.13 0 0 1-.4.55A.978.978 0 0 1 12 22Zm0-10.5c.7 0 1.292-.242 1.775-.725.483-.483.725-1.075.725-1.775s-.242-1.292-.725-1.775C13.292 6.742 12.7 6.5 12 6.5s-1.292.242-1.775.725C9.742 7.708 9.5 8.3 9.5 9s.242 1.292.725 1.775c.483.483 1.075.725 1.775.725Z"/>
</svg>
